<mxfile host="app.diagrams.net" modified="2023-11-14T05:18:26.670Z" agent="Mozilla/5.0 (Windows NT 10.0; Win64; x64) AppleWebKit/537.36 (KHTML, like Gecko) Chrome/119.0.0.0 Safari/537.36" etag="7bf1Zyc9s6fYMv8_1Df2" version="22.1.0" type="github">
  <diagram name="Page-1" id="qh9bkh5XAp2ZXwSmuEZq">
    <mxGraphModel dx="934" dy="485" grid="1" gridSize="10" guides="1" tooltips="1" connect="1" arrows="1" fold="1" page="1" pageScale="1" pageWidth="850" pageHeight="1100" math="0" shadow="0">
      <root>
        <mxCell id="0" />
        <mxCell id="1" parent="0" />
        <mxCell id="P4B9Dwf5wOCtqZJwkF_M-4" value="" style="edgeStyle=orthogonalEdgeStyle;rounded=0;orthogonalLoop=1;jettySize=auto;html=1;" edge="1" parent="1" source="P4B9Dwf5wOCtqZJwkF_M-1" target="P4B9Dwf5wOCtqZJwkF_M-3">
          <mxGeometry relative="1" as="geometry" />
        </mxCell>
        <mxCell id="P4B9Dwf5wOCtqZJwkF_M-1" value="Total Area" style="rounded=1;whiteSpace=wrap;html=1;" vertex="1" parent="1">
          <mxGeometry x="80" y="200" width="120" height="60" as="geometry" />
        </mxCell>
        <mxCell id="P4B9Dwf5wOCtqZJwkF_M-7" style="edgeStyle=orthogonalEdgeStyle;rounded=0;orthogonalLoop=1;jettySize=auto;html=1;entryX=0;entryY=0.5;entryDx=0;entryDy=0;" edge="1" parent="1" source="P4B9Dwf5wOCtqZJwkF_M-2" target="P4B9Dwf5wOCtqZJwkF_M-5">
          <mxGeometry relative="1" as="geometry" />
        </mxCell>
        <mxCell id="P4B9Dwf5wOCtqZJwkF_M-2" value="MetaData" style="rounded=1;whiteSpace=wrap;html=1;" vertex="1" parent="1">
          <mxGeometry x="80" y="300" width="120" height="60" as="geometry" />
        </mxCell>
        <mxCell id="P4B9Dwf5wOCtqZJwkF_M-6" style="edgeStyle=orthogonalEdgeStyle;rounded=0;orthogonalLoop=1;jettySize=auto;html=1;" edge="1" parent="1" source="P4B9Dwf5wOCtqZJwkF_M-3" target="P4B9Dwf5wOCtqZJwkF_M-5">
          <mxGeometry relative="1" as="geometry" />
        </mxCell>
        <mxCell id="P4B9Dwf5wOCtqZJwkF_M-3" value="Total supply" style="rounded=1;whiteSpace=wrap;html=1;" vertex="1" parent="1">
          <mxGeometry x="280" y="200" width="120" height="60" as="geometry" />
        </mxCell>
        <mxCell id="P4B9Dwf5wOCtqZJwkF_M-11" value="" style="edgeStyle=orthogonalEdgeStyle;rounded=0;orthogonalLoop=1;jettySize=auto;html=1;" edge="1" parent="1" source="P4B9Dwf5wOCtqZJwkF_M-5" target="P4B9Dwf5wOCtqZJwkF_M-10">
          <mxGeometry relative="1" as="geometry">
            <Array as="points">
              <mxPoint x="630" y="330" />
              <mxPoint x="630" y="330" />
            </Array>
          </mxGeometry>
        </mxCell>
        <mxCell id="P4B9Dwf5wOCtqZJwkF_M-5" value="ID" style="rounded=1;whiteSpace=wrap;html=1;" vertex="1" parent="1">
          <mxGeometry x="450" y="300" width="120" height="60" as="geometry" />
        </mxCell>
        <mxCell id="P4B9Dwf5wOCtqZJwkF_M-8" value="&lt;h1&gt;Total Supply&lt;/h1&gt;&lt;div&gt;the supply will be defined in the context of the smallest salable area denomination.&lt;/div&gt;" style="text;html=1;strokeColor=none;fillColor=none;spacing=5;spacingTop=-20;whiteSpace=wrap;overflow=hidden;rounded=0;" vertex="1" parent="1">
          <mxGeometry x="260" y="60" width="190" height="120" as="geometry" />
        </mxCell>
        <mxCell id="P4B9Dwf5wOCtqZJwkF_M-10" value="ERC1155" style="rounded=0;whiteSpace=wrap;html=1;" vertex="1" parent="1">
          <mxGeometry x="650" y="200" width="170" height="160" as="geometry" />
        </mxCell>
      </root>
    </mxGraphModel>
  </diagram>
</mxfile>
